<?xml version="1.0" standalone="no"?>
<!DOCTYPE svg PUBLIC "-//W3C//DTD SVG 20010904//EN"
 "http://www.w3.org/TR/2001/REC-SVG-20010904/DTD/svg10.dtd">
<svg version="1.0" xmlns="http://www.w3.org/2000/svg"
 width="1650.000000pt" height="1650.000000pt" viewBox="0 0 1650.000000 1650.000000"
 preserveAspectRatio="xMidYMid meet">
<metadata>
Created by potrace 1.14, written by Peter Selinger 2001-2017
</metadata>
<g transform="translate(0.000000,1650.000000) scale(0.100000,-0.100000)"
fill="#000000" stroke="none">
<path d="M4295 11345 c-135 -28 -211 -70 -310 -169 -235 -236 -235 -605 -2
-840 40 -40 95 -85 122 -100 184 -102 390 -107 582 -14 86 42 205 157 251 245
67 127 88 291 56 431 -50 215 -243 403 -461 447 -58 12 -180 12 -238 0z"/>
<path d="M4310 9523 c-198 -33 -386 -185 -459 -372 -42 -106 -44 -138 -43
-856 1 -913 10 -1322 36 -1560 2 -16 7 -61 10 -100 4 -38 8 -77 11 -85 2 -8 6
-35 9 -60 28 -219 90 -384 209 -564 55 -80 205 -244 283 -306 80 -65 190 -137
289 -190 44 -24 85 -46 90 -51 6 -4 71 -32 145 -62 215 -88 380 -132 585 -155
121 -14 464 -5 518 13 6 2 30 7 52 10 277 40 643 210 876 406 143 121 534 453
539 459 3 3 46 39 95 80 50 41 92 78 95 81 4 5 717 599 845 704 22 18 148 122
280 232 867 719 1212 1005 1504 1246 119 98 227 188 241 200 84 74 92 78 171
73 361 -24 699 -196 932 -473 49 -59 151 -219 163 -255 9 -28 72 -114 110
-149 166 -152 422 -163 605 -27 115 85 178 207 187 354 6 113 -12 181 -74 282
-24 40 -44 75 -44 77 0 10 -96 144 -165 230 -122 152 -258 280 -415 393 -47
34 -90 66 -97 72 -7 5 -15 10 -17 10 -3 0 -29 15 -58 34 -209 133 -561 259
-813 291 -27 4 -77 10 -110 15 -67 9 -507 5 -570 -5 -52 -9 -173 -32 -206 -39
-314 -70 -748 -354 -1424 -934 -11 -10 -85 -71 -165 -137 -80 -65 -161 -133
-181 -149 -19 -17 -46 -40 -60 -51 -20 -17 -151 -126 -224 -187 -11 -9 -130
-108 -265 -220 -135 -112 -364 -302 -510 -423 -146 -121 -273 -227 -284 -235
-10 -8 -23 -20 -30 -25 -8 -8 -331 -276 -441 -367 -11 -9 -90 -74 -175 -145
-150 -125 -409 -332 -480 -384 -33 -24 -68 -45 -165 -99 -59 -33 -205 -88
-282 -106 l-68 -16 -49 54 c-145 159 -227 349 -261 608 -3 25 -8 56 -10 70 -8
53 -14 118 -20 205 -4 50 -8 110 -10 135 -18 208 -23 838 -10 1255 12 420 9
662 -10 741 -34 138 -108 252 -222 342 -42 33 -151 88 -194 98 -83 19 -111 23
-174 22 -38 0 -81 -3 -95 -5z"/>
<path d="M12065 7033 c-153 -28 -274 -116 -369 -269 -170 -272 -406 -461 -698
-558 -390 -130 -803 -63 -1175 189 -115 78 -196 106 -303 106 -354 0 -580
-367 -425 -690 56 -114 254 -275 517 -420 194 -106 481 -201 699 -231 46 -6
107 -15 135 -19 60 -9 368 -7 439 3 68 9 127 18 146 21 9 2 34 6 55 9 22 4 47
9 56 12 9 3 25 7 35 9 101 22 260 76 371 127 34 15 64 28 66 28 2 0 46 23 97
51 323 178 592 425 794 730 143 216 174 314 153 476 -28 211 -215 402 -421
428 -88 11 -104 11 -172 -2z"/>
</g>
</svg>
